HIERARCHY
ROOT RootJoint
{
    OFFSET   0.000000   0.000000   0.000000
    CHANNELS 6 Xposition Yposition Zposition Xrotation Yrotation Zrotation
    JOINT pelvis_lowerback
    {
        OFFSET   0.000000   0.093605   0.000000
        CHANNELS 3 Xrotation Yrotation Zrotation
        JOINT lowerback_torso
        {
            OFFSET   0.000000   0.100000   0.000000
            CHANNELS 3 Xrotation Yrotation Zrotation
            JOINT torso_head
            {
                OFFSET   0.000000   0.282350   0.000000
                CHANNELS 3 Xrotation Yrotation Zrotation
                End Site
                {
                    OFFSET   0.000000   0.192650   0.000000
                }
            }
            JOINT rTorso_Clavicle
            {
                OFFSET  -0.001000   0.157500   0.000000
                CHANNELS 3 Xrotation Yrotation Zrotation
                JOINT rShoulder
                {
                    OFFSET  -0.117647   0.000000   0.000000
                    CHANNELS 3 Xrotation Yrotation Zrotation
                    JOINT rElbow
                    {
                        OFFSET  -0.245000   0.000000   0.000000
                        CHANNELS 3 Xrotation Yrotation Zrotation
                        JOINT rWrist
                        {
                            OFFSET  -0.240000   0.000000   0.000000
                            CHANNELS 3 Xrotation Yrotation Zrotation
                            End Site
                            {
                                OFFSET  -0.116353  -0.002500   0.000000
                            }
                        }
                    }
                }
            }
            JOINT lTorso_Clavicle
            {
                OFFSET   0.001000   0.157500   0.000000
                CHANNELS 3 Xrotation Yrotation Zrotation
                JOINT lShoulder
                {
                    OFFSET   0.117647   0.000000   0.000000
                    CHANNELS 3 Xrotation Yrotation Zrotation
                    JOINT lElbow
                    {
                        OFFSET   0.245000   0.000000   0.000000
                        CHANNELS 3 Xrotation Yrotation Zrotation
                        JOINT lWrist
                        {
                            OFFSET   0.240000   0.000000   0.000000
                            CHANNELS 3 Xrotation Yrotation Zrotation
                            End Site
                            {
                                OFFSET   0.116353  -0.002500   0.000000
                            }
                        }
                    }
                }
            }
        }
    }
    JOINT rHip
    {
        OFFSET  -0.100000  -0.051395   0.000000
        CHANNELS 3 Xrotation Yrotation Zrotation
        JOINT rKnee
        {
            OFFSET   0.000000  -0.410000   0.000000
            CHANNELS 3 Xrotation Yrotation Zrotation
            JOINT rAnkle
            {
                OFFSET   0.000000  -0.390000   0.000000
                CHANNELS 3 Xrotation Yrotation Zrotation
                JOINT rToeJoint
                {
                    OFFSET   0.000000  -0.050000   0.130000
                    CHANNELS 3 Xrotation Yrotation Zrotation
                    End Site
                    {
                        OFFSET  -0.010000   0.002000   0.060000
                    }
                }
            }
        }
    }
    JOINT lHip
    {
        OFFSET   0.100000  -0.051395   0.000000
        CHANNELS 3 Xrotation Yrotation Zrotation
        JOINT lKnee
        {
            OFFSET   0.000000  -0.410000   0.000000
            CHANNELS 3 Xrotation Yrotation Zrotation
            JOINT lAnkle
            {
                OFFSET   0.000000  -0.390000   0.000000
                CHANNELS 3 Xrotation Yrotation Zrotation
                JOINT lToeJoint
                {
                    OFFSET   0.000000  -0.050000   0.130000
                    CHANNELS 3 Xrotation Yrotation Zrotation
                    End Site
                    {
                        OFFSET   0.010000   0.002000   0.060000
                    }
                }
            }
        }
    }
}
MOTION
Frames: 14
Frame Time:   0.008333
 -3.123229   0.870193   5.467339 172.638062 -80.349640 168.854172   5.714130   4.184242  -1.047901   0.992710   0.982794  -1.307885  -0.624977   7.471039  -1.234631   2.259909  -1.957647   6.416253   8.799020  10.622214  42.873766  -0.001059  20.971607  -0.001222   7.264634   2.633957  -2.022434   0.711166   1.850038  -9.181227   7.277230  -7.093729 -42.158371  -0.000954 -18.603340   0.012393   7.852962  -3.869741   3.383486   3.288951  -7.974484  -6.233109  28.077556   0.012798   0.012932 -15.731148  -5.461421   8.360180 -23.368834  -0.007109   0.001225 -29.169635  20.426999   0.630375  33.970176  -0.012304  -0.020556 -16.703069  22.835068  11.166833  -1.480957  -0.000234   0.003063
 -3.131082   0.868352   5.468375 172.971379 -80.924365 168.880238   5.671721   4.176871  -1.038816   0.886481   1.065596  -1.257791  -0.648025   7.514784  -1.247101   2.240566  -2.058676   6.471705   8.891314  10.674467  42.941766  -0.000772  20.930466  -0.000878   7.266471   2.663231  -2.037087   0.744406   1.916139  -9.089530   7.293965  -7.042555 -42.298366  -0.001347 -18.285353   0.011907   7.781652  -3.933324   3.449292   2.705674  -8.061069  -6.226463  30.665946   0.019063   0.014523 -14.346678  -5.429719   8.845355 -27.839532  -0.011839   0.003306 -28.362930  19.695608   0.115040  33.517115  -0.010413  -0.015557 -16.838705  22.550659  11.511913  -1.321067  -0.000336   0.001775
 -3.138690   0.867873   5.469865 174.091088 -81.729136 170.002186   5.805431   4.052309  -1.274221   0.874585   1.073854  -1.299579  -0.660601   7.545939  -1.270447   2.214963  -2.135718   6.656233   8.963191  10.740049  43.056634  -0.000604  20.888688  -0.000561   7.266137   2.664990  -2.068081   0.756420   1.938204  -9.062695   7.297335  -7.008460 -42.422240  -0.001939 -17.979859   0.011315   7.716223  -3.948034   3.514822   2.087879  -8.108822  -6.574085  33.466237   0.028578   0.020237 -12.851018  -5.410051   9.269866 -30.188684  -0.014721  -0.000909 -27.749600  18.832333  -0.507580  34.027081  -0.008300  -0.013530 -16.672262  22.231379  11.910285  -1.134982  -0.001248   0.000242
 -3.146533   0.867876   5.471475 175.495610 -82.623460 171.361506   5.869177   3.923385  -1.422097   0.896227   1.063425  -1.332250  -0.652888   7.574046  -1.298147   2.225182  -2.245208   6.826141   9.054439  10.784677  43.187006  -0.000478  20.845673  -0.000299   7.266628   2.667164  -2.011672   0.791477   1.981594  -9.056640   7.315130  -6.970287 -42.577546  -0.002369 -17.695193   0.010922   7.657208  -3.973646   3.493114   1.530347  -8.122165  -6.860392  36.183730   0.037847   0.026091 -11.292841  -5.368321   9.646788 -30.657362  -0.013004  -0.002091 -26.989037  18.083248  -1.074299  34.336165  -0.006465  -0.010862 -16.614019  21.964610  12.230688  -0.995300  -0.001581  -0.000298
 -3.154470   0.868089   5.473128 176.924695 -83.609043 172.713673   5.874264   3.786293  -1.531308   0.899298   1.037399  -1.342915  -0.648893   7.599883  -1.320157   2.260866  -2.378481   6.981820   9.159825  10.808443  43.317831  -0.000374  20.798733  -0.000069   7.265615   2.648268  -1.910837   0.838391   2.038678  -9.047847   7.342361  -6.925864 -42.731847  -0.002588 -17.427378   0.010712   7.600801  -3.998064   3.429916   1.013553  -8.122076  -7.082695  38.755158   0.046298   0.031650  -9.718322  -5.303430   9.984691 -29.746745  -0.007703   0.001752 -26.196210  17.383640  -1.597392  34.532492  -0.004978  -0.008430 -16.589573  21.718409  12.526151  -0.873376  -0.001722  -0.000447
 -3.162417   0.868352   5.474814 178.429834 -84.668992 174.130184   5.839933   3.649768  -1.625927   0.880964   1.003040  -1.342673  -0.650940   7.623995  -1.338900   2.310224  -2.522120   7.122161   9.270966  10.818667  43.442916  -0.000282  20.750009   0.000136   7.263284   2.608498  -1.792321   0.888104   2.101091  -9.025691   7.373152  -6.878309 -42.871700  -0.002627 -17.175978   0.010603   7.546093  -4.016996   3.361848   0.533972  -8.111463  -7.257046  41.161326   0.053562   0.036458  -8.160188  -5.219905  10.288590 -27.854140   0.000327   0.010214 -25.408814  16.726189  -2.085249  34.670763  -0.003799  -0.006400 -16.581422  21.489422  12.800675  -0.763753  -0.001756  -0.000388
 -3.170186   0.868741   5.476490 -179.973834 -85.763151 175.664602   5.790732   3.526535  -1.748641   0.842582   0.971622  -1.349652  -0.659364   7.646966  -1.357238   2.358814  -2.658022   7.261512   9.375845  10.827655  43.565232  -0.000204  20.703510   0.000313   7.260365   2.560922  -1.672571   0.932138   2.159963  -8.989803   7.401575  -6.831689 -42.988470  -0.002567 -16.940508   0.010489   7.492406  -4.028583   3.316225   0.066879  -8.079222  -7.355408  43.417326   0.058473   0.041094  -6.645824  -5.063222  10.575752 -25.282416   0.008387   0.022549 -24.626195  16.058638  -2.611857  34.763804  -0.002894  -0.004876 -16.962398  21.186311  13.278164  -0.630667  -0.001912  -0.000310
 -3.177501   0.869136   5.478368 -178.358117 -86.959408 177.232048   5.701922   3.344758  -1.819139   0.874249   0.919754  -1.343513  -0.638220   7.594033  -1.471023   2.476503  -2.749332   7.369646   9.446509  10.907523  43.656094  -0.000196  20.542242   0.001233   7.305803   2.608117  -1.641136   0.972483   2.175450  -8.945000   7.467670  -6.899031 -43.164550  -0.002445 -16.774620   0.009570   7.427049  -3.971940   3.298954  -0.689439  -7.844091  -7.427255  46.253814   0.070852   0.053131  -5.631606  -4.903705  10.588427 -22.879102   0.020793   0.039285 -23.881540  15.384348  -3.154604  34.775006  -0.002291  -0.003864 -17.311678  20.771903  13.609372  -0.368946  -0.002138  -0.000240
 -3.184643   0.869557   5.480353 -174.325057 -88.229932 -178.794231   5.634667   3.146154  -1.846934   0.929670   0.844652  -1.321811  -0.609469   7.541185  -1.579313   2.596786  -2.841614   7.469696   9.521710  10.974236  43.737092  -0.000235  20.384128   0.002019   7.353147   2.619623  -1.604393   1.000874   2.175163  -8.921429   7.519682  -6.977182 -43.346683  -0.002286 -16.627988   0.008714   7.370790  -3.956863   3.250296  -1.452565  -7.602999  -7.466848  49.016960   0.082616   0.062578  -4.684482  -4.752948  10.597162 -20.713790   0.031569   0.051179 -23.117986  14.678159  -3.685529  34.736792  -0.001908  -0.003243 -17.636077  20.294633  13.900168  -0.491814  -0.001475  -0.000197
 -3.191657   0.869972   5.482419 -150.959324 -89.464433 -155.496074   5.576161   2.958365  -1.850316   0.991967   0.767827  -1.287120  -0.579803   7.492165  -1.677100   2.716735  -2.934738   7.564573   9.598035  11.031207  43.814132  -0.000289  20.233229   0.002632   7.398638   2.611295  -1.557339   1.025911   2.172791  -8.908320   7.565740  -7.054066 -43.524906  -0.002103 -16.493604   0.007963   7.318354  -3.963039   3.185982  -2.211790  -7.365772  -7.493889  51.612701   0.091823   0.067816  -3.800420  -4.611786  10.602465 -18.734214   0.040630   0.058387 -22.357515  13.964334  -4.186201  34.674041  -0.001655  -0.002853 -17.949190  19.793233  14.169719  -0.595665  -0.001000  -0.000160
 -3.198562   0.870360   5.484550 -22.845723 -89.119184 -27.456049   5.522920   2.787504  -1.837986   1.055027   0.697970  -1.242817  -0.551434   7.446843  -1.766025   2.832774  -3.024841   7.655500   9.672267  11.082154  43.888247  -0.000338  20.090848   0.003076   7.442244   2.594110  -1.501998   1.051495   2.173387  -8.898650   7.609793  -7.125017 -43.694363  -0.001908 -16.368189   0.007312   7.268251  -3.974076   3.116227  -2.964324  -7.133853  -7.519115  54.030265   0.098110   0.069352  -2.976073  -4.480281  10.604636 -16.923037   0.047811   0.061638 -21.608867  13.254213  -4.650519  34.602016  -0.001472  -0.002582 -18.258474  19.285676  14.426593  -0.685980  -0.000653  -0.000129
 -3.205316   0.870741   5.486783 -11.323877 -87.887954 -16.000236   5.475066   2.631915  -1.818119   1.114719   0.635913  -1.195867  -0.525486   7.404738  -1.848190   2.941649  -3.108740   7.743055   9.741858  11.129650  43.958340  -0.000381  19.957462   0.003380   7.483984   2.573887  -1.444962   1.077025   2.175910  -8.892682   7.651749  -7.190315 -43.854273  -0.001712 -16.250604   0.006739   7.219971  -3.983355   3.046485  -3.717372  -6.904999  -7.561425  56.274475   0.101759   0.068176  -2.207566  -4.358090  10.604158 -15.265670   0.053150   0.061941 -20.873243  12.543730  -5.088519  34.524845  -0.001329  -0.002381 -18.610199  18.775778  14.539955  -0.653832  -0.000533  -0.000103
 -3.211934   0.871086   5.489097  -8.294684 -86.661938 -13.040145   5.430634   2.492371  -1.785628   1.171806   0.582992  -1.142968  -0.501254   7.365607  -1.923677   3.042935  -3.186155   7.824705   9.806412  11.174642  44.024055  -0.000410  19.833246   0.003560   7.524110   2.555467  -1.387058   1.103397   2.181410  -8.886861   7.692555  -7.249523 -44.004526  -0.001517 -16.140210   0.006229   7.173463  -3.989773   2.977195  -4.460456  -6.680662  -7.608474  58.355741   0.103058   0.065170  -1.491285  -4.244788  10.601436 -13.749657   0.056704   0.060118 -20.154410  11.845654  -5.493234  34.439022  -0.001232  -0.002252 -18.952223  18.268309  14.638763  -0.689080  -0.000418  -0.000083
 -3.218363   0.871474   5.491604  -8.060957 -85.373485 -12.867867   5.531596   2.313750  -1.685283   1.242266   0.518273  -1.127694  -0.476091   7.271624  -2.023428   3.142724  -3.196898   7.862656   9.807210  11.247362  44.120611  -0.000464  19.705940   0.003791   7.567629   2.476076  -1.337601   1.179588   2.139028  -8.902387   7.816925  -7.480953 -44.143352  -0.001185 -16.151919   0.004928   7.167032  -3.874710   2.988723  -5.135032  -6.266889  -7.628748  60.255517   0.105274   0.063697  -1.522182  -4.332853  10.346196 -12.466652   0.061399   0.058690 -19.297901  11.191103  -5.883091  34.285395  -0.001335  -0.002533 -19.254398  17.669559  14.737018  -0.717026  -0.000329  -0.000066
